<mxfile host="app.diagrams.net" modified="2024-01-31T18:36:11.519Z" agent="Mozilla/5.0 (Windows NT 10.0; Win64; x64; rv:122.0) Gecko/20100101 Firefox/122.0" etag="e2JS4E33IqKQo6wAv8Md" version="23.0.2" type="device">
  <diagram name="Page-1" id="6tIqBRQ_kxG9VkadpFG2">
    <mxGraphModel dx="1457" dy="1883" grid="1" gridSize="10" guides="1" tooltips="1" connect="1" arrows="1" fold="1" page="1" pageScale="1" pageWidth="850" pageHeight="1100" math="0" shadow="0">
      <root>
        <mxCell id="0" />
        <mxCell id="1" parent="0" />
        <mxCell id="RDFiTj0e4lP1ygF3-NHr-1" value="USER" style="rounded=0;whiteSpace=wrap;html=1;" parent="1" vertex="1">
          <mxGeometry x="200" y="242" width="120" height="60" as="geometry" />
        </mxCell>
        <mxCell id="RDFiTj0e4lP1ygF3-NHr-2" value="" style="endArrow=none;html=1;rounded=0;entryX=0;entryY=0;entryDx=0;entryDy=0;exitX=0.485;exitY=1.182;exitDx=0;exitDy=0;exitPerimeter=0;" parent="1" source="RDFiTj0e4lP1ygF3-NHr-3" target="RDFiTj0e4lP1ygF3-NHr-1" edge="1">
          <mxGeometry width="50" height="50" relative="1" as="geometry">
            <mxPoint x="150" y="242" as="sourcePoint" />
            <mxPoint x="160" y="262" as="targetPoint" />
          </mxGeometry>
        </mxCell>
        <mxCell id="RDFiTj0e4lP1ygF3-NHr-3" value="" style="ellipse;whiteSpace=wrap;html=1;aspect=fixed;fillColor=#66B2FF;" parent="1" vertex="1">
          <mxGeometry x="195" y="210" width="10" height="10" as="geometry" />
        </mxCell>
        <mxCell id="RDFiTj0e4lP1ygF3-NHr-4" value="" style="endArrow=none;html=1;rounded=0;entryX=0.25;entryY=0;entryDx=0;entryDy=0;exitX=0.5;exitY=1;exitDx=0;exitDy=0;" parent="1" source="RDFiTj0e4lP1ygF3-NHr-5" target="RDFiTj0e4lP1ygF3-NHr-1" edge="1">
          <mxGeometry width="50" height="50" relative="1" as="geometry">
            <mxPoint x="152.5" y="262" as="sourcePoint" />
            <mxPoint x="202.5" y="262" as="targetPoint" />
          </mxGeometry>
        </mxCell>
        <mxCell id="RDFiTj0e4lP1ygF3-NHr-5" value="" style="ellipse;whiteSpace=wrap;html=1;aspect=fixed;fillColor=#3399FF;" parent="1" vertex="1">
          <mxGeometry x="225" y="200" width="10" height="10" as="geometry" />
        </mxCell>
        <mxCell id="RDFiTj0e4lP1ygF3-NHr-6" value="email" style="text;html=1;align=center;verticalAlign=middle;resizable=0;points=[];autosize=1;strokeColor=none;fillColor=none;" parent="1" vertex="1">
          <mxGeometry x="205" y="170" width="50" height="30" as="geometry" />
        </mxCell>
        <mxCell id="RDFiTj0e4lP1ygF3-NHr-7" value="" style="endArrow=none;html=1;rounded=0;exitX=0.5;exitY=1;exitDx=0;exitDy=0;" parent="1" source="RDFiTj0e4lP1ygF3-NHr-8" edge="1">
          <mxGeometry width="50" height="50" relative="1" as="geometry">
            <mxPoint x="150" y="292" as="sourcePoint" />
            <mxPoint x="265" y="240" as="targetPoint" />
          </mxGeometry>
        </mxCell>
        <mxCell id="RDFiTj0e4lP1ygF3-NHr-8" value="" style="ellipse;whiteSpace=wrap;html=1;aspect=fixed;fillColor=none;" parent="1" vertex="1">
          <mxGeometry x="260" y="180" width="10" height="10" as="geometry" />
        </mxCell>
        <mxCell id="RDFiTj0e4lP1ygF3-NHr-9" value="" style="endArrow=none;html=1;rounded=0;exitX=0.449;exitY=1.133;exitDx=0;exitDy=0;entryX=0.866;entryY=-0.014;entryDx=0;entryDy=0;entryPerimeter=0;exitPerimeter=0;" parent="1" source="RDFiTj0e4lP1ygF3-NHr-10" target="RDFiTj0e4lP1ygF3-NHr-1" edge="1">
          <mxGeometry width="50" height="50" relative="1" as="geometry">
            <mxPoint x="149" y="312" as="sourcePoint" />
            <mxPoint x="200" y="302" as="targetPoint" />
          </mxGeometry>
        </mxCell>
        <mxCell id="RDFiTj0e4lP1ygF3-NHr-10" value="" style="ellipse;whiteSpace=wrap;html=1;aspect=fixed;" parent="1" vertex="1">
          <mxGeometry x="300" y="160" width="10" height="10" as="geometry" />
        </mxCell>
        <mxCell id="RDFiTj0e4lP1ygF3-NHr-11" value="password" style="text;html=1;align=center;verticalAlign=middle;resizable=0;points=[];autosize=1;strokeColor=none;fillColor=none;" parent="1" vertex="1">
          <mxGeometry x="225" y="150" width="80" height="30" as="geometry" />
        </mxCell>
        <mxCell id="RDFiTj0e4lP1ygF3-NHr-12" value="id" style="text;html=1;align=center;verticalAlign=middle;resizable=0;points=[];autosize=1;strokeColor=none;fillColor=none;" parent="1" vertex="1">
          <mxGeometry x="185" y="178" width="30" height="30" as="geometry" />
        </mxCell>
        <mxCell id="RDFiTj0e4lP1ygF3-NHr-13" value="name" style="text;html=1;align=center;verticalAlign=middle;resizable=0;points=[];autosize=1;strokeColor=none;fillColor=none;" parent="1" vertex="1">
          <mxGeometry x="275" y="120" width="60" height="30" as="geometry" />
        </mxCell>
        <mxCell id="RDFiTj0e4lP1ygF3-NHr-14" value="create" style="shape=rhombus;perimeter=rhombusPerimeter;whiteSpace=wrap;html=1;align=center;" parent="1" vertex="1">
          <mxGeometry x="380" y="242" width="120" height="60" as="geometry" />
        </mxCell>
        <mxCell id="RDFiTj0e4lP1ygF3-NHr-15" value="" style="endArrow=none;html=1;rounded=0;entryX=0;entryY=0.5;entryDx=0;entryDy=0;exitX=1;exitY=0.5;exitDx=0;exitDy=0;" parent="1" source="RDFiTj0e4lP1ygF3-NHr-1" target="RDFiTj0e4lP1ygF3-NHr-14" edge="1">
          <mxGeometry width="50" height="50" relative="1" as="geometry">
            <mxPoint x="280" y="400" as="sourcePoint" />
            <mxPoint x="330" y="350" as="targetPoint" />
          </mxGeometry>
        </mxCell>
        <mxCell id="RDFiTj0e4lP1ygF3-NHr-16" value="(0, n)" style="text;html=1;align=center;verticalAlign=middle;resizable=0;points=[];autosize=1;strokeColor=none;fillColor=none;" parent="1" vertex="1">
          <mxGeometry x="310" y="248" width="50" height="30" as="geometry" />
        </mxCell>
        <mxCell id="RDFiTj0e4lP1ygF3-NHr-17" value="ACCOUNT" style="rounded=0;whiteSpace=wrap;html=1;" parent="1" vertex="1">
          <mxGeometry x="550" y="242" width="120" height="60" as="geometry" />
        </mxCell>
        <mxCell id="RDFiTj0e4lP1ygF3-NHr-18" value="" style="endArrow=none;html=1;rounded=0;exitX=1;exitY=0.5;exitDx=0;exitDy=0;entryX=0;entryY=0.5;entryDx=0;entryDy=0;" parent="1" source="RDFiTj0e4lP1ygF3-NHr-14" target="RDFiTj0e4lP1ygF3-NHr-17" edge="1">
          <mxGeometry width="50" height="50" relative="1" as="geometry">
            <mxPoint x="510" y="300" as="sourcePoint" />
            <mxPoint x="560" y="250" as="targetPoint" />
          </mxGeometry>
        </mxCell>
        <mxCell id="RDFiTj0e4lP1ygF3-NHr-19" value="(1, 1)" style="text;html=1;align=center;verticalAlign=middle;resizable=0;points=[];autosize=1;strokeColor=none;fillColor=none;" parent="1" vertex="1">
          <mxGeometry x="500" y="248" width="50" height="30" as="geometry" />
        </mxCell>
        <mxCell id="RDFiTj0e4lP1ygF3-NHr-20" value="" style="endArrow=none;html=1;rounded=0;entryX=0.6;entryY=1.233;entryDx=0;entryDy=0;entryPerimeter=0;" parent="1" target="RDFiTj0e4lP1ygF3-NHr-21" edge="1">
          <mxGeometry width="50" height="50" relative="1" as="geometry">
            <mxPoint x="556" y="240" as="sourcePoint" />
            <mxPoint x="700" y="247" as="targetPoint" />
          </mxGeometry>
        </mxCell>
        <mxCell id="RDFiTj0e4lP1ygF3-NHr-21" value="" style="ellipse;whiteSpace=wrap;html=1;aspect=fixed;fillColor=#3399FF;" parent="1" vertex="1">
          <mxGeometry x="550" y="160" width="10" height="10" as="geometry" />
        </mxCell>
        <mxCell id="RDFiTj0e4lP1ygF3-NHr-22" value="balance" style="text;html=1;align=center;verticalAlign=middle;resizable=0;points=[];autosize=1;strokeColor=none;fillColor=none;" parent="1" vertex="1">
          <mxGeometry x="615" y="210" width="70" height="30" as="geometry" />
        </mxCell>
        <mxCell id="RDFiTj0e4lP1ygF3-NHr-23" value="" style="ellipse;whiteSpace=wrap;html=1;aspect=fixed;fillColor=none;" parent="1" vertex="1">
          <mxGeometry x="570" y="178" width="10" height="10" as="geometry" />
        </mxCell>
        <mxCell id="RDFiTj0e4lP1ygF3-NHr-24" value="" style="endArrow=none;html=1;rounded=0;entryX=0.5;entryY=1;entryDx=0;entryDy=0;" parent="1" target="RDFiTj0e4lP1ygF3-NHr-23" edge="1">
          <mxGeometry width="50" height="50" relative="1" as="geometry">
            <mxPoint x="575" y="240" as="sourcePoint" />
            <mxPoint x="700" y="267" as="targetPoint" />
          </mxGeometry>
        </mxCell>
        <mxCell id="RDFiTj0e4lP1ygF3-NHr-25" value="name" style="text;html=1;align=center;verticalAlign=middle;resizable=0;points=[];autosize=1;strokeColor=none;fillColor=none;" parent="1" vertex="1">
          <mxGeometry x="570" y="168" width="60" height="30" as="geometry" />
        </mxCell>
        <mxCell id="RDFiTj0e4lP1ygF3-NHr-26" value="description" style="text;html=1;align=center;verticalAlign=middle;resizable=0;points=[];autosize=1;strokeColor=none;fillColor=none;" parent="1" vertex="1">
          <mxGeometry x="600" y="188" width="80" height="30" as="geometry" />
        </mxCell>
        <mxCell id="RDFiTj0e4lP1ygF3-NHr-27" value="" style="ellipse;whiteSpace=wrap;html=1;aspect=fixed;fillColor=none;" parent="1" vertex="1">
          <mxGeometry x="590" y="198" width="10" height="10" as="geometry" />
        </mxCell>
        <mxCell id="RDFiTj0e4lP1ygF3-NHr-28" value="" style="endArrow=none;html=1;rounded=0;entryX=0.5;entryY=1;entryDx=0;entryDy=0;" parent="1" target="RDFiTj0e4lP1ygF3-NHr-27" edge="1">
          <mxGeometry width="50" height="50" relative="1" as="geometry">
            <mxPoint x="595" y="240" as="sourcePoint" />
            <mxPoint x="700" y="287" as="targetPoint" />
          </mxGeometry>
        </mxCell>
        <mxCell id="RDFiTj0e4lP1ygF3-NHr-29" value="id" style="text;html=1;align=center;verticalAlign=middle;resizable=0;points=[];autosize=1;strokeColor=none;fillColor=none;" parent="1" vertex="1">
          <mxGeometry x="560" y="150" width="30" height="30" as="geometry" />
        </mxCell>
        <mxCell id="RDFiTj0e4lP1ygF3-NHr-30" value="" style="endArrow=none;html=1;rounded=0;exitX=0.503;exitY=0.039;exitDx=0;exitDy=0;exitPerimeter=0;entryX=0.5;entryY=1;entryDx=0;entryDy=0;" parent="1" source="RDFiTj0e4lP1ygF3-NHr-17" target="RDFiTj0e4lP1ygF3-NHr-31" edge="1">
          <mxGeometry width="50" height="50" relative="1" as="geometry">
            <mxPoint x="600" y="270" as="sourcePoint" />
            <mxPoint x="610" y="230" as="targetPoint" />
          </mxGeometry>
        </mxCell>
        <mxCell id="RDFiTj0e4lP1ygF3-NHr-31" value="" style="ellipse;whiteSpace=wrap;html=1;aspect=fixed;fillColor=none;" parent="1" vertex="1">
          <mxGeometry x="605" y="220" width="10" height="10" as="geometry" />
        </mxCell>
        <mxCell id="RDFiTj0e4lP1ygF3-NHr-32" value="create" style="shape=rhombus;perimeter=rhombusPerimeter;whiteSpace=wrap;html=1;align=center;" parent="1" vertex="1">
          <mxGeometry x="550" y="60" width="120" height="60" as="geometry" />
        </mxCell>
        <mxCell id="RDFiTj0e4lP1ygF3-NHr-33" value="" style="endArrow=none;html=1;rounded=0;entryX=0;entryY=0.5;entryDx=0;entryDy=0;exitX=0;exitY=0;exitDx=0;exitDy=0;" parent="1" source="RDFiTj0e4lP1ygF3-NHr-17" target="RDFiTj0e4lP1ygF3-NHr-32" edge="1">
          <mxGeometry width="50" height="50" relative="1" as="geometry">
            <mxPoint x="480" y="150" as="sourcePoint" />
            <mxPoint x="530" y="100" as="targetPoint" />
            <Array as="points">
              <mxPoint x="490" y="160" />
            </Array>
          </mxGeometry>
        </mxCell>
        <mxCell id="RDFiTj0e4lP1ygF3-NHr-34" value="" style="endArrow=none;html=1;rounded=0;entryX=1;entryY=0.5;entryDx=0;entryDy=0;exitX=0.777;exitY=1.143;exitDx=0;exitDy=0;exitPerimeter=0;" parent="1" source="RDFiTj0e4lP1ygF3-NHr-22" target="RDFiTj0e4lP1ygF3-NHr-32" edge="1">
          <mxGeometry width="50" height="50" relative="1" as="geometry">
            <mxPoint x="740" y="242" as="sourcePoint" />
            <mxPoint x="740" y="90" as="targetPoint" />
            <Array as="points">
              <mxPoint x="730" y="160" />
            </Array>
          </mxGeometry>
        </mxCell>
        <mxCell id="RDFiTj0e4lP1ygF3-NHr-35" value="" style="endArrow=none;html=1;rounded=0;entryX=0.5;entryY=1;entryDx=0;entryDy=0;exitX=0.137;exitY=0.317;exitDx=0;exitDy=0;exitPerimeter=0;" parent="1" source="RDFiTj0e4lP1ygF3-NHr-32" target="RDFiTj0e4lP1ygF3-NHr-37" edge="1">
          <mxGeometry width="50" height="50" relative="1" as="geometry">
            <mxPoint x="550" y="70" as="sourcePoint" />
            <mxPoint x="600" y="20" as="targetPoint" />
          </mxGeometry>
        </mxCell>
        <mxCell id="RDFiTj0e4lP1ygF3-NHr-37" value="" style="ellipse;whiteSpace=wrap;html=1;aspect=fixed;fillColor=none;" parent="1" vertex="1">
          <mxGeometry x="560" y="50" width="10" height="10" as="geometry" />
        </mxCell>
        <mxCell id="RDFiTj0e4lP1ygF3-NHr-38" value="status" style="text;html=1;align=center;verticalAlign=middle;resizable=0;points=[];autosize=1;strokeColor=none;fillColor=none;" parent="1" vertex="1">
          <mxGeometry x="535" y="20" width="60" height="30" as="geometry" />
        </mxCell>
        <mxCell id="RDFiTj0e4lP1ygF3-NHr-39" value="" style="ellipse;whiteSpace=wrap;html=1;aspect=fixed;fillColor=none;" parent="1" vertex="1">
          <mxGeometry x="605" y="30" width="10" height="10" as="geometry" />
        </mxCell>
        <mxCell id="RDFiTj0e4lP1ygF3-NHr-40" value="" style="ellipse;whiteSpace=wrap;html=1;aspect=fixed;fillColor=none;" parent="1" vertex="1">
          <mxGeometry x="645" y="40" width="10" height="10" as="geometry" />
        </mxCell>
        <mxCell id="RDFiTj0e4lP1ygF3-NHr-41" value="" style="endArrow=none;html=1;rounded=0;entryX=0.5;entryY=1;entryDx=0;entryDy=0;exitX=0.5;exitY=0;exitDx=0;exitDy=0;" parent="1" source="RDFiTj0e4lP1ygF3-NHr-32" target="RDFiTj0e4lP1ygF3-NHr-39" edge="1">
          <mxGeometry width="50" height="50" relative="1" as="geometry">
            <mxPoint x="590" y="90" as="sourcePoint" />
            <mxPoint x="640" y="40" as="targetPoint" />
          </mxGeometry>
        </mxCell>
        <mxCell id="RDFiTj0e4lP1ygF3-NHr-42" value="" style="endArrow=none;html=1;rounded=0;entryX=0.5;entryY=1;entryDx=0;entryDy=0;exitX=0.834;exitY=0.354;exitDx=0;exitDy=0;exitPerimeter=0;" parent="1" source="RDFiTj0e4lP1ygF3-NHr-32" target="RDFiTj0e4lP1ygF3-NHr-40" edge="1">
          <mxGeometry width="50" height="50" relative="1" as="geometry">
            <mxPoint x="649.86" y="80" as="sourcePoint" />
            <mxPoint x="649.86" y="60" as="targetPoint" />
          </mxGeometry>
        </mxCell>
        <mxCell id="RDFiTj0e4lP1ygF3-NHr-43" value="amount" style="text;html=1;align=center;verticalAlign=middle;resizable=0;points=[];autosize=1;strokeColor=none;fillColor=none;" parent="1" vertex="1">
          <mxGeometry x="575" y="-2" width="70" height="30" as="geometry" />
        </mxCell>
        <mxCell id="RDFiTj0e4lP1ygF3-NHr-44" value="date" style="text;html=1;align=center;verticalAlign=middle;resizable=0;points=[];autosize=1;strokeColor=none;fillColor=none;" parent="1" vertex="1">
          <mxGeometry x="625" y="18" width="50" height="30" as="geometry" />
        </mxCell>
        <mxCell id="RDFiTj0e4lP1ygF3-NHr-45" value="(0, n)" style="text;html=1;align=center;verticalAlign=middle;resizable=0;points=[];autosize=1;strokeColor=none;fillColor=none;" parent="1" vertex="1">
          <mxGeometry x="440" y="138" width="50" height="30" as="geometry" />
        </mxCell>
        <mxCell id="RDFiTj0e4lP1ygF3-NHr-46" value="(0, n)" style="text;html=1;align=center;verticalAlign=middle;resizable=0;points=[];autosize=1;strokeColor=none;fillColor=none;" parent="1" vertex="1">
          <mxGeometry x="740" y="140" width="50" height="30" as="geometry" />
        </mxCell>
        <mxCell id="RDFiTj0e4lP1ygF3-NHr-47" value="" style="endArrow=none;html=1;rounded=0;exitX=1.01;exitY=0.642;exitDx=0;exitDy=0;exitPerimeter=0;entryX=0;entryY=0.5;entryDx=0;entryDy=0;" parent="1" source="RDFiTj0e4lP1ygF3-NHr-17" target="RDFiTj0e4lP1ygF3-NHr-48" edge="1">
          <mxGeometry width="50" height="50" relative="1" as="geometry">
            <mxPoint x="730" y="300" as="sourcePoint" />
            <mxPoint x="760" y="280" as="targetPoint" />
          </mxGeometry>
        </mxCell>
        <mxCell id="RDFiTj0e4lP1ygF3-NHr-48" value="is associated" style="shape=rhombus;perimeter=rhombusPerimeter;whiteSpace=wrap;html=1;align=center;" parent="1" vertex="1">
          <mxGeometry x="760" y="250" width="120" height="60" as="geometry" />
        </mxCell>
        <mxCell id="RDFiTj0e4lP1ygF3-NHr-49" value="transfers" style="shape=rhombus;perimeter=rhombusPerimeter;whiteSpace=wrap;html=1;align=center;" parent="1" vertex="1">
          <mxGeometry x="760" y="350" width="120" height="60" as="geometry" />
        </mxCell>
        <mxCell id="RDFiTj0e4lP1ygF3-NHr-50" value="" style="endArrow=none;html=1;rounded=0;entryX=0.75;entryY=1;entryDx=0;entryDy=0;exitX=0;exitY=0.5;exitDx=0;exitDy=0;" parent="1" source="RDFiTj0e4lP1ygF3-NHr-49" target="RDFiTj0e4lP1ygF3-NHr-17" edge="1">
          <mxGeometry width="50" height="50" relative="1" as="geometry">
            <mxPoint x="650" y="410" as="sourcePoint" />
            <mxPoint x="700" y="360" as="targetPoint" />
            <Array as="points">
              <mxPoint x="640" y="380" />
            </Array>
          </mxGeometry>
        </mxCell>
        <mxCell id="RDFiTj0e4lP1ygF3-NHr-51" value="" style="endArrow=none;html=1;rounded=0;exitX=1;exitY=0.5;exitDx=0;exitDy=0;" parent="1" source="RDFiTj0e4lP1ygF3-NHr-48" target="RDFiTj0e4lP1ygF3-NHr-52" edge="1">
          <mxGeometry width="50" height="50" relative="1" as="geometry">
            <mxPoint x="980" y="300" as="sourcePoint" />
            <mxPoint x="940" y="280" as="targetPoint" />
          </mxGeometry>
        </mxCell>
        <mxCell id="RDFiTj0e4lP1ygF3-NHr-52" value="BANK ACCOUNT" style="rounded=0;whiteSpace=wrap;html=1;" parent="1" vertex="1">
          <mxGeometry x="970" y="250" width="120" height="60" as="geometry" />
        </mxCell>
        <mxCell id="RDFiTj0e4lP1ygF3-NHr-53" value="(1, n)" style="text;html=1;align=center;verticalAlign=middle;resizable=0;points=[];autosize=1;strokeColor=none;fillColor=none;" parent="1" vertex="1">
          <mxGeometry x="920" y="278" width="50" height="30" as="geometry" />
        </mxCell>
        <mxCell id="RDFiTj0e4lP1ygF3-NHr-54" value="(0, n)" style="text;html=1;align=center;verticalAlign=middle;resizable=0;points=[];autosize=1;strokeColor=none;fillColor=none;" parent="1" vertex="1">
          <mxGeometry x="670" y="278" width="50" height="30" as="geometry" />
        </mxCell>
        <mxCell id="RDFiTj0e4lP1ygF3-NHr-55" value="" style="endArrow=none;html=1;rounded=0;entryX=0.5;entryY=1;entryDx=0;entryDy=0;exitX=1;exitY=0.5;exitDx=0;exitDy=0;" parent="1" source="RDFiTj0e4lP1ygF3-NHr-49" target="RDFiTj0e4lP1ygF3-NHr-52" edge="1">
          <mxGeometry width="50" height="50" relative="1" as="geometry">
            <mxPoint x="1020" y="410" as="sourcePoint" />
            <mxPoint x="1070" y="360" as="targetPoint" />
            <Array as="points">
              <mxPoint x="1030" y="380" />
            </Array>
          </mxGeometry>
        </mxCell>
        <mxCell id="RDFiTj0e4lP1ygF3-NHr-56" value="(0, n)" style="text;html=1;align=center;verticalAlign=middle;resizable=0;points=[];autosize=1;strokeColor=none;fillColor=none;" parent="1" vertex="1">
          <mxGeometry x="960" y="350" width="50" height="30" as="geometry" />
        </mxCell>
        <mxCell id="RDFiTj0e4lP1ygF3-NHr-57" value="(0, n)" style="text;html=1;align=center;verticalAlign=middle;resizable=0;points=[];autosize=1;strokeColor=none;fillColor=none;" parent="1" vertex="1">
          <mxGeometry x="635" y="350" width="50" height="30" as="geometry" />
        </mxCell>
        <mxCell id="RDFiTj0e4lP1ygF3-NHr-58" value="" style="endArrow=none;html=1;rounded=0;entryX=0.958;entryY=0.583;entryDx=0;entryDy=0;entryPerimeter=0;exitX=0.5;exitY=0;exitDx=0;exitDy=0;" parent="1" source="RDFiTj0e4lP1ygF3-NHr-59" target="RDFiTj0e4lP1ygF3-NHr-49" edge="1">
          <mxGeometry width="50" height="50" relative="1" as="geometry">
            <mxPoint x="740" y="470" as="sourcePoint" />
            <mxPoint x="790" y="420" as="targetPoint" />
          </mxGeometry>
        </mxCell>
        <mxCell id="RDFiTj0e4lP1ygF3-NHr-59" value="" style="ellipse;whiteSpace=wrap;html=1;aspect=fixed;fillColor=none;" parent="1" vertex="1">
          <mxGeometry x="870" y="390" width="10" height="10" as="geometry" />
        </mxCell>
        <mxCell id="RDFiTj0e4lP1ygF3-NHr-60" value="direction" style="text;html=1;align=center;verticalAlign=middle;resizable=0;points=[];autosize=1;strokeColor=none;fillColor=none;" parent="1" vertex="1">
          <mxGeometry x="870" y="380" width="70" height="30" as="geometry" />
        </mxCell>
        <mxCell id="RDFiTj0e4lP1ygF3-NHr-61" value="" style="ellipse;whiteSpace=wrap;html=1;aspect=fixed;fillColor=none;" parent="1" vertex="1">
          <mxGeometry x="860" y="410" width="10" height="10" as="geometry" />
        </mxCell>
        <mxCell id="RDFiTj0e4lP1ygF3-NHr-62" value="" style="ellipse;whiteSpace=wrap;html=1;aspect=fixed;fillColor=none;" parent="1" vertex="1">
          <mxGeometry x="850" y="430" width="10" height="10" as="geometry" />
        </mxCell>
        <mxCell id="RDFiTj0e4lP1ygF3-NHr-63" value="" style="ellipse;whiteSpace=wrap;html=1;aspect=fixed;fillColor=none;" parent="1" vertex="1">
          <mxGeometry x="840" y="450" width="10" height="10" as="geometry" />
        </mxCell>
        <mxCell id="RDFiTj0e4lP1ygF3-NHr-64" value="" style="ellipse;whiteSpace=wrap;html=1;aspect=fixed;fillColor=none;" parent="1" vertex="1">
          <mxGeometry x="830" y="470" width="10" height="10" as="geometry" />
        </mxCell>
        <mxCell id="RDFiTj0e4lP1ygF3-NHr-65" value="" style="endArrow=none;html=1;rounded=0;entryX=0.872;entryY=0.628;entryDx=0;entryDy=0;entryPerimeter=0;exitX=0.5;exitY=0;exitDx=0;exitDy=0;" parent="1" source="RDFiTj0e4lP1ygF3-NHr-61" target="RDFiTj0e4lP1ygF3-NHr-49" edge="1">
          <mxGeometry width="50" height="50" relative="1" as="geometry">
            <mxPoint x="800" y="470" as="sourcePoint" />
            <mxPoint x="850" y="420" as="targetPoint" />
          </mxGeometry>
        </mxCell>
        <mxCell id="RDFiTj0e4lP1ygF3-NHr-68" value="" style="endArrow=none;html=1;rounded=0;exitX=0.5;exitY=0;exitDx=0;exitDy=0;entryX=0.787;entryY=0.749;entryDx=0;entryDy=0;entryPerimeter=0;" parent="1" source="RDFiTj0e4lP1ygF3-NHr-62" target="RDFiTj0e4lP1ygF3-NHr-49" edge="1">
          <mxGeometry width="50" height="50" relative="1" as="geometry">
            <mxPoint x="875" y="420" as="sourcePoint" />
            <mxPoint x="875" y="398" as="targetPoint" />
          </mxGeometry>
        </mxCell>
        <mxCell id="RDFiTj0e4lP1ygF3-NHr-71" value="" style="endArrow=none;html=1;rounded=0;entryX=0.5;entryY=0;entryDx=0;entryDy=0;exitX=0.708;exitY=0.833;exitDx=0;exitDy=0;exitPerimeter=0;" parent="1" source="RDFiTj0e4lP1ygF3-NHr-49" target="RDFiTj0e4lP1ygF3-NHr-63" edge="1">
          <mxGeometry width="50" height="50" relative="1" as="geometry">
            <mxPoint x="830" y="460" as="sourcePoint" />
            <mxPoint x="880" y="410" as="targetPoint" />
          </mxGeometry>
        </mxCell>
        <mxCell id="RDFiTj0e4lP1ygF3-NHr-72" value="" style="endArrow=none;html=1;rounded=0;exitX=0.5;exitY=0;exitDx=0;exitDy=0;entryX=0.629;entryY=0.889;entryDx=0;entryDy=0;entryPerimeter=0;" parent="1" source="RDFiTj0e4lP1ygF3-NHr-64" target="RDFiTj0e4lP1ygF3-NHr-49" edge="1">
          <mxGeometry width="50" height="50" relative="1" as="geometry">
            <mxPoint x="820" y="470" as="sourcePoint" />
            <mxPoint x="870" y="420" as="targetPoint" />
          </mxGeometry>
        </mxCell>
        <mxCell id="RDFiTj0e4lP1ygF3-NHr-73" value="start_date" style="text;html=1;align=center;verticalAlign=middle;resizable=0;points=[];autosize=1;strokeColor=none;fillColor=none;" parent="1" vertex="1">
          <mxGeometry x="860" y="400" width="80" height="30" as="geometry" />
        </mxCell>
        <mxCell id="RDFiTj0e4lP1ygF3-NHr-74" value="end_date" style="text;html=1;align=center;verticalAlign=middle;resizable=0;points=[];autosize=1;strokeColor=none;fillColor=none;" parent="1" vertex="1">
          <mxGeometry x="850" y="420" width="80" height="30" as="geometry" />
        </mxCell>
        <mxCell id="RDFiTj0e4lP1ygF3-NHr-75" value="status" style="text;html=1;align=center;verticalAlign=middle;resizable=0;points=[];autosize=1;strokeColor=none;fillColor=none;" parent="1" vertex="1">
          <mxGeometry x="845" y="440" width="60" height="30" as="geometry" />
        </mxCell>
        <mxCell id="RDFiTj0e4lP1ygF3-NHr-76" value="amount" style="text;html=1;align=center;verticalAlign=middle;resizable=0;points=[];autosize=1;strokeColor=none;fillColor=none;" parent="1" vertex="1">
          <mxGeometry x="835" y="460" width="70" height="30" as="geometry" />
        </mxCell>
        <mxCell id="RDFiTj0e4lP1ygF3-NHr-77" value="" style="endArrow=none;html=1;rounded=0;exitX=1;exitY=0.5;exitDx=0;exitDy=0;entryX=0.2;entryY=0.456;entryDx=0;entryDy=0;entryPerimeter=0;" parent="1" source="RDFiTj0e4lP1ygF3-NHr-52" target="RDFiTj0e4lP1ygF3-NHr-78" edge="1">
          <mxGeometry width="50" height="50" relative="1" as="geometry">
            <mxPoint x="1100" y="300" as="sourcePoint" />
            <mxPoint x="1130" y="280" as="targetPoint" />
          </mxGeometry>
        </mxCell>
        <mxCell id="RDFiTj0e4lP1ygF3-NHr-78" value="" style="ellipse;whiteSpace=wrap;html=1;aspect=fixed;fillColor=#3399FF;" parent="1" vertex="1">
          <mxGeometry x="1120" y="275" width="10" height="10" as="geometry" />
        </mxCell>
        <mxCell id="RDFiTj0e4lP1ygF3-NHr-79" value="account_number" style="text;html=1;align=center;verticalAlign=middle;resizable=0;points=[];autosize=1;strokeColor=none;fillColor=none;" parent="1" vertex="1">
          <mxGeometry x="1120" y="265" width="120" height="30" as="geometry" />
        </mxCell>
        <mxCell id="RDFiTj0e4lP1ygF3-NHr-81" value="&lt;div&gt;CORPORATE &lt;br&gt;&lt;/div&gt;&lt;div&gt;ACCOUNT&lt;br&gt;&lt;/div&gt;" style="rounded=0;whiteSpace=wrap;html=1;" parent="1" vertex="1">
          <mxGeometry x="505" y="405" width="120" height="60" as="geometry" />
        </mxCell>
        <mxCell id="RDFiTj0e4lP1ygF3-NHr-82" value="" style="endArrow=none;html=1;rounded=0;entryX=-0.003;entryY=0.311;entryDx=0;entryDy=0;exitX=1;exitY=0.5;exitDx=0;exitDy=0;entryPerimeter=0;" parent="1" source="RDFiTj0e4lP1ygF3-NHr-83" target="RDFiTj0e4lP1ygF3-NHr-81" edge="1">
          <mxGeometry width="50" height="50" relative="1" as="geometry">
            <mxPoint x="470" y="420" as="sourcePoint" />
            <mxPoint x="480" y="430" as="targetPoint" />
          </mxGeometry>
        </mxCell>
        <mxCell id="RDFiTj0e4lP1ygF3-NHr-83" value="" style="ellipse;whiteSpace=wrap;html=1;aspect=fixed;fillColor=none;" parent="1" vertex="1">
          <mxGeometry x="440" y="420" width="10" height="10" as="geometry" />
        </mxCell>
        <mxCell id="RDFiTj0e4lP1ygF3-NHr-84" value="name" style="text;html=1;align=center;verticalAlign=middle;resizable=0;points=[];autosize=1;strokeColor=none;fillColor=none;" parent="1" vertex="1">
          <mxGeometry x="390" y="408" width="60" height="30" as="geometry" />
        </mxCell>
        <mxCell id="RDFiTj0e4lP1ygF3-NHr-85" value="" style="endArrow=none;html=1;rounded=0;entryX=0.003;entryY=0.656;entryDx=0;entryDy=0;exitX=1;exitY=0.5;exitDx=0;exitDy=0;entryPerimeter=0;" parent="1" source="RDFiTj0e4lP1ygF3-NHr-86" target="RDFiTj0e4lP1ygF3-NHr-81" edge="1">
          <mxGeometry width="50" height="50" relative="1" as="geometry">
            <mxPoint x="455" y="441.98" as="sourcePoint" />
            <mxPoint x="505.7199999999999" y="440.0000000000002" as="targetPoint" />
          </mxGeometry>
        </mxCell>
        <mxCell id="RDFiTj0e4lP1ygF3-NHr-86" value="" style="ellipse;whiteSpace=wrap;html=1;aspect=fixed;fillColor=none;" parent="1" vertex="1">
          <mxGeometry x="440" y="440" width="10" height="10" as="geometry" />
        </mxCell>
        <mxCell id="RDFiTj0e4lP1ygF3-NHr-87" value="tax_id" style="text;html=1;align=center;verticalAlign=middle;resizable=0;points=[];autosize=1;strokeColor=none;fillColor=none;" parent="1" vertex="1">
          <mxGeometry x="390" y="430" width="60" height="30" as="geometry" />
        </mxCell>
        <mxCell id="RDFiTj0e4lP1ygF3-NHr-88" value="(p, e)" style="text;html=1;align=center;verticalAlign=middle;resizable=0;points=[];autosize=1;strokeColor=none;fillColor=none;" parent="1" vertex="1">
          <mxGeometry x="510" y="310" width="50" height="30" as="geometry" />
        </mxCell>
        <mxCell id="RDFiTj0e4lP1ygF3-NHr-89" value="" style="endArrow=classic;html=1;rounded=0;entryX=0.25;entryY=1;entryDx=0;entryDy=0;exitX=0.619;exitY=-0.015;exitDx=0;exitDy=0;exitPerimeter=0;" parent="1" source="RDFiTj0e4lP1ygF3-NHr-81" target="RDFiTj0e4lP1ygF3-NHr-17" edge="1">
          <mxGeometry width="50" height="50" relative="1" as="geometry">
            <mxPoint x="540" y="400" as="sourcePoint" />
            <mxPoint x="590" y="350" as="targetPoint" />
          </mxGeometry>
        </mxCell>
        <mxCell id="2uZ70mHevNtbc2cB-5er-1" value="users" style="shape=table;startSize=30;container=1;collapsible=1;childLayout=tableLayout;fixedRows=1;rowLines=0;fontStyle=1;align=center;resizeLast=1;html=1;" vertex="1" parent="1">
          <mxGeometry x="130" y="830" width="180" height="150" as="geometry" />
        </mxCell>
        <mxCell id="2uZ70mHevNtbc2cB-5er-2" value="" style="shape=tableRow;horizontal=0;startSize=0;swimlaneHead=0;swimlaneBody=0;fillColor=none;collapsible=0;dropTarget=0;points=[[0,0.5],[1,0.5]];portConstraint=eastwest;top=0;left=0;right=0;bottom=1;" vertex="1" parent="2uZ70mHevNtbc2cB-5er-1">
          <mxGeometry y="30" width="180" height="30" as="geometry" />
        </mxCell>
        <mxCell id="2uZ70mHevNtbc2cB-5er-3" value="PK" style="shape=partialRectangle;connectable=0;fillColor=none;top=0;left=0;bottom=0;right=0;fontStyle=1;overflow=hidden;whiteSpace=wrap;html=1;" vertex="1" parent="2uZ70mHevNtbc2cB-5er-2">
          <mxGeometry width="30" height="30" as="geometry">
            <mxRectangle width="30" height="30" as="alternateBounds" />
          </mxGeometry>
        </mxCell>
        <mxCell id="2uZ70mHevNtbc2cB-5er-4" value="id" style="shape=partialRectangle;connectable=0;fillColor=none;top=0;left=0;bottom=0;right=0;align=left;spacingLeft=6;fontStyle=5;overflow=hidden;whiteSpace=wrap;html=1;" vertex="1" parent="2uZ70mHevNtbc2cB-5er-2">
          <mxGeometry x="30" width="150" height="30" as="geometry">
            <mxRectangle width="150" height="30" as="alternateBounds" />
          </mxGeometry>
        </mxCell>
        <mxCell id="2uZ70mHevNtbc2cB-5er-5" value="" style="shape=tableRow;horizontal=0;startSize=0;swimlaneHead=0;swimlaneBody=0;fillColor=none;collapsible=0;dropTarget=0;points=[[0,0.5],[1,0.5]];portConstraint=eastwest;top=0;left=0;right=0;bottom=0;" vertex="1" parent="2uZ70mHevNtbc2cB-5er-1">
          <mxGeometry y="60" width="180" height="30" as="geometry" />
        </mxCell>
        <mxCell id="2uZ70mHevNtbc2cB-5er-6" value="UQ" style="shape=partialRectangle;connectable=0;fillColor=none;top=0;left=0;bottom=0;right=0;editable=1;overflow=hidden;whiteSpace=wrap;html=1;" vertex="1" parent="2uZ70mHevNtbc2cB-5er-5">
          <mxGeometry width="30" height="30" as="geometry">
            <mxRectangle width="30" height="30" as="alternateBounds" />
          </mxGeometry>
        </mxCell>
        <mxCell id="2uZ70mHevNtbc2cB-5er-7" value="email" style="shape=partialRectangle;connectable=0;fillColor=none;top=0;left=0;bottom=0;right=0;align=left;spacingLeft=6;overflow=hidden;whiteSpace=wrap;html=1;" vertex="1" parent="2uZ70mHevNtbc2cB-5er-5">
          <mxGeometry x="30" width="150" height="30" as="geometry">
            <mxRectangle width="150" height="30" as="alternateBounds" />
          </mxGeometry>
        </mxCell>
        <mxCell id="2uZ70mHevNtbc2cB-5er-8" value="" style="shape=tableRow;horizontal=0;startSize=0;swimlaneHead=0;swimlaneBody=0;fillColor=none;collapsible=0;dropTarget=0;points=[[0,0.5],[1,0.5]];portConstraint=eastwest;top=0;left=0;right=0;bottom=0;" vertex="1" parent="2uZ70mHevNtbc2cB-5er-1">
          <mxGeometry y="90" width="180" height="30" as="geometry" />
        </mxCell>
        <mxCell id="2uZ70mHevNtbc2cB-5er-9" value="" style="shape=partialRectangle;connectable=0;fillColor=none;top=0;left=0;bottom=0;right=0;editable=1;overflow=hidden;whiteSpace=wrap;html=1;" vertex="1" parent="2uZ70mHevNtbc2cB-5er-8">
          <mxGeometry width="30" height="30" as="geometry">
            <mxRectangle width="30" height="30" as="alternateBounds" />
          </mxGeometry>
        </mxCell>
        <mxCell id="2uZ70mHevNtbc2cB-5er-10" value="password" style="shape=partialRectangle;connectable=0;fillColor=none;top=0;left=0;bottom=0;right=0;align=left;spacingLeft=6;overflow=hidden;whiteSpace=wrap;html=1;" vertex="1" parent="2uZ70mHevNtbc2cB-5er-8">
          <mxGeometry x="30" width="150" height="30" as="geometry">
            <mxRectangle width="150" height="30" as="alternateBounds" />
          </mxGeometry>
        </mxCell>
        <mxCell id="2uZ70mHevNtbc2cB-5er-11" value="" style="shape=tableRow;horizontal=0;startSize=0;swimlaneHead=0;swimlaneBody=0;fillColor=none;collapsible=0;dropTarget=0;points=[[0,0.5],[1,0.5]];portConstraint=eastwest;top=0;left=0;right=0;bottom=0;" vertex="1" parent="2uZ70mHevNtbc2cB-5er-1">
          <mxGeometry y="120" width="180" height="30" as="geometry" />
        </mxCell>
        <mxCell id="2uZ70mHevNtbc2cB-5er-12" value="" style="shape=partialRectangle;connectable=0;fillColor=none;top=0;left=0;bottom=0;right=0;editable=1;overflow=hidden;whiteSpace=wrap;html=1;" vertex="1" parent="2uZ70mHevNtbc2cB-5er-11">
          <mxGeometry width="30" height="30" as="geometry">
            <mxRectangle width="30" height="30" as="alternateBounds" />
          </mxGeometry>
        </mxCell>
        <mxCell id="2uZ70mHevNtbc2cB-5er-13" value="name" style="shape=partialRectangle;connectable=0;fillColor=none;top=0;left=0;bottom=0;right=0;align=left;spacingLeft=6;overflow=hidden;whiteSpace=wrap;html=1;" vertex="1" parent="2uZ70mHevNtbc2cB-5er-11">
          <mxGeometry x="30" width="150" height="30" as="geometry">
            <mxRectangle width="150" height="30" as="alternateBounds" />
          </mxGeometry>
        </mxCell>
        <mxCell id="2uZ70mHevNtbc2cB-5er-14" value="accounts" style="shape=table;startSize=30;container=1;collapsible=1;childLayout=tableLayout;fixedRows=1;rowLines=0;fontStyle=1;align=center;resizeLast=1;html=1;" vertex="1" parent="1">
          <mxGeometry x="517.5" y="800" width="180" height="180" as="geometry" />
        </mxCell>
        <mxCell id="2uZ70mHevNtbc2cB-5er-15" value="" style="shape=tableRow;horizontal=0;startSize=0;swimlaneHead=0;swimlaneBody=0;fillColor=none;collapsible=0;dropTarget=0;points=[[0,0.5],[1,0.5]];portConstraint=eastwest;top=0;left=0;right=0;bottom=1;" vertex="1" parent="2uZ70mHevNtbc2cB-5er-14">
          <mxGeometry y="30" width="180" height="30" as="geometry" />
        </mxCell>
        <mxCell id="2uZ70mHevNtbc2cB-5er-16" value="PK" style="shape=partialRectangle;connectable=0;fillColor=none;top=0;left=0;bottom=0;right=0;fontStyle=1;overflow=hidden;whiteSpace=wrap;html=1;" vertex="1" parent="2uZ70mHevNtbc2cB-5er-15">
          <mxGeometry width="30" height="30" as="geometry">
            <mxRectangle width="30" height="30" as="alternateBounds" />
          </mxGeometry>
        </mxCell>
        <mxCell id="2uZ70mHevNtbc2cB-5er-17" value="id" style="shape=partialRectangle;connectable=0;fillColor=none;top=0;left=0;bottom=0;right=0;align=left;spacingLeft=6;fontStyle=5;overflow=hidden;whiteSpace=wrap;html=1;" vertex="1" parent="2uZ70mHevNtbc2cB-5er-15">
          <mxGeometry x="30" width="150" height="30" as="geometry">
            <mxRectangle width="150" height="30" as="alternateBounds" />
          </mxGeometry>
        </mxCell>
        <mxCell id="2uZ70mHevNtbc2cB-5er-27" style="shape=tableRow;horizontal=0;startSize=0;swimlaneHead=0;swimlaneBody=0;fillColor=none;collapsible=0;dropTarget=0;points=[[0,0.5],[1,0.5]];portConstraint=eastwest;top=0;left=0;right=0;bottom=0;" vertex="1" parent="2uZ70mHevNtbc2cB-5er-14">
          <mxGeometry y="60" width="180" height="30" as="geometry" />
        </mxCell>
        <mxCell id="2uZ70mHevNtbc2cB-5er-28" value="FK" style="shape=partialRectangle;connectable=0;fillColor=none;top=0;left=0;bottom=0;right=0;editable=1;overflow=hidden;whiteSpace=wrap;html=1;" vertex="1" parent="2uZ70mHevNtbc2cB-5er-27">
          <mxGeometry width="30" height="30" as="geometry">
            <mxRectangle width="30" height="30" as="alternateBounds" />
          </mxGeometry>
        </mxCell>
        <mxCell id="2uZ70mHevNtbc2cB-5er-29" value="user_id" style="shape=partialRectangle;connectable=0;fillColor=none;top=0;left=0;bottom=0;right=0;align=left;spacingLeft=6;overflow=hidden;whiteSpace=wrap;html=1;" vertex="1" parent="2uZ70mHevNtbc2cB-5er-27">
          <mxGeometry x="30" width="150" height="30" as="geometry">
            <mxRectangle width="150" height="30" as="alternateBounds" />
          </mxGeometry>
        </mxCell>
        <mxCell id="2uZ70mHevNtbc2cB-5er-18" value="" style="shape=tableRow;horizontal=0;startSize=0;swimlaneHead=0;swimlaneBody=0;fillColor=none;collapsible=0;dropTarget=0;points=[[0,0.5],[1,0.5]];portConstraint=eastwest;top=0;left=0;right=0;bottom=0;" vertex="1" parent="2uZ70mHevNtbc2cB-5er-14">
          <mxGeometry y="90" width="180" height="30" as="geometry" />
        </mxCell>
        <mxCell id="2uZ70mHevNtbc2cB-5er-19" value="" style="shape=partialRectangle;connectable=0;fillColor=none;top=0;left=0;bottom=0;right=0;editable=1;overflow=hidden;whiteSpace=wrap;html=1;" vertex="1" parent="2uZ70mHevNtbc2cB-5er-18">
          <mxGeometry width="30" height="30" as="geometry">
            <mxRectangle width="30" height="30" as="alternateBounds" />
          </mxGeometry>
        </mxCell>
        <mxCell id="2uZ70mHevNtbc2cB-5er-20" value="name" style="shape=partialRectangle;connectable=0;fillColor=none;top=0;left=0;bottom=0;right=0;align=left;spacingLeft=6;overflow=hidden;whiteSpace=wrap;html=1;" vertex="1" parent="2uZ70mHevNtbc2cB-5er-18">
          <mxGeometry x="30" width="150" height="30" as="geometry">
            <mxRectangle width="150" height="30" as="alternateBounds" />
          </mxGeometry>
        </mxCell>
        <mxCell id="2uZ70mHevNtbc2cB-5er-21" value="" style="shape=tableRow;horizontal=0;startSize=0;swimlaneHead=0;swimlaneBody=0;fillColor=none;collapsible=0;dropTarget=0;points=[[0,0.5],[1,0.5]];portConstraint=eastwest;top=0;left=0;right=0;bottom=0;" vertex="1" parent="2uZ70mHevNtbc2cB-5er-14">
          <mxGeometry y="120" width="180" height="30" as="geometry" />
        </mxCell>
        <mxCell id="2uZ70mHevNtbc2cB-5er-22" value="" style="shape=partialRectangle;connectable=0;fillColor=none;top=0;left=0;bottom=0;right=0;editable=1;overflow=hidden;whiteSpace=wrap;html=1;" vertex="1" parent="2uZ70mHevNtbc2cB-5er-21">
          <mxGeometry width="30" height="30" as="geometry">
            <mxRectangle width="30" height="30" as="alternateBounds" />
          </mxGeometry>
        </mxCell>
        <mxCell id="2uZ70mHevNtbc2cB-5er-23" value="description" style="shape=partialRectangle;connectable=0;fillColor=none;top=0;left=0;bottom=0;right=0;align=left;spacingLeft=6;overflow=hidden;whiteSpace=wrap;html=1;" vertex="1" parent="2uZ70mHevNtbc2cB-5er-21">
          <mxGeometry x="30" width="150" height="30" as="geometry">
            <mxRectangle width="150" height="30" as="alternateBounds" />
          </mxGeometry>
        </mxCell>
        <mxCell id="2uZ70mHevNtbc2cB-5er-24" value="" style="shape=tableRow;horizontal=0;startSize=0;swimlaneHead=0;swimlaneBody=0;fillColor=none;collapsible=0;dropTarget=0;points=[[0,0.5],[1,0.5]];portConstraint=eastwest;top=0;left=0;right=0;bottom=0;" vertex="1" parent="2uZ70mHevNtbc2cB-5er-14">
          <mxGeometry y="150" width="180" height="30" as="geometry" />
        </mxCell>
        <mxCell id="2uZ70mHevNtbc2cB-5er-25" value="" style="shape=partialRectangle;connectable=0;fillColor=none;top=0;left=0;bottom=0;right=0;editable=1;overflow=hidden;whiteSpace=wrap;html=1;" vertex="1" parent="2uZ70mHevNtbc2cB-5er-24">
          <mxGeometry width="30" height="30" as="geometry">
            <mxRectangle width="30" height="30" as="alternateBounds" />
          </mxGeometry>
        </mxCell>
        <mxCell id="2uZ70mHevNtbc2cB-5er-26" value="balance" style="shape=partialRectangle;connectable=0;fillColor=none;top=0;left=0;bottom=0;right=0;align=left;spacingLeft=6;overflow=hidden;whiteSpace=wrap;html=1;" vertex="1" parent="2uZ70mHevNtbc2cB-5er-24">
          <mxGeometry x="30" width="150" height="30" as="geometry">
            <mxRectangle width="150" height="30" as="alternateBounds" />
          </mxGeometry>
        </mxCell>
        <mxCell id="2uZ70mHevNtbc2cB-5er-31" value="" style="edgeStyle=entityRelationEdgeStyle;fontSize=12;html=1;endArrow=ERzeroToMany;startArrow=ERmandOne;rounded=0;entryX=0;entryY=0.5;entryDx=0;entryDy=0;exitX=1;exitY=0.5;exitDx=0;exitDy=0;" edge="1" parent="1" source="2uZ70mHevNtbc2cB-5er-2" target="2uZ70mHevNtbc2cB-5er-27">
          <mxGeometry width="100" height="100" relative="1" as="geometry">
            <mxPoint x="407.5" y="930" as="sourcePoint" />
            <mxPoint x="507.5" y="830" as="targetPoint" />
          </mxGeometry>
        </mxCell>
        <mxCell id="2uZ70mHevNtbc2cB-5er-32" value="bank_transfers" style="shape=table;startSize=30;container=1;collapsible=1;childLayout=tableLayout;fixedRows=1;rowLines=0;fontStyle=1;align=center;resizeLast=1;html=1;" vertex="1" parent="1">
          <mxGeometry x="920" y="900" width="180" height="240" as="geometry" />
        </mxCell>
        <mxCell id="2uZ70mHevNtbc2cB-5er-113" style="shape=tableRow;horizontal=0;startSize=0;swimlaneHead=0;swimlaneBody=0;fillColor=none;collapsible=0;dropTarget=0;points=[[0,0.5],[1,0.5]];portConstraint=eastwest;top=0;left=0;right=0;bottom=0;" vertex="1" parent="2uZ70mHevNtbc2cB-5er-32">
          <mxGeometry y="30" width="180" height="30" as="geometry" />
        </mxCell>
        <mxCell id="2uZ70mHevNtbc2cB-5er-114" value="FK1" style="shape=partialRectangle;connectable=0;fillColor=none;top=0;left=0;bottom=0;right=0;editable=1;overflow=hidden;whiteSpace=wrap;html=1;" vertex="1" parent="2uZ70mHevNtbc2cB-5er-113">
          <mxGeometry width="30" height="30" as="geometry">
            <mxRectangle width="30" height="30" as="alternateBounds" />
          </mxGeometry>
        </mxCell>
        <mxCell id="2uZ70mHevNtbc2cB-5er-115" value="bank_account_id" style="shape=partialRectangle;connectable=0;fillColor=none;top=0;left=0;bottom=0;right=0;align=left;spacingLeft=6;overflow=hidden;whiteSpace=wrap;html=1;" vertex="1" parent="2uZ70mHevNtbc2cB-5er-113">
          <mxGeometry x="30" width="150" height="30" as="geometry">
            <mxRectangle width="150" height="30" as="alternateBounds" />
          </mxGeometry>
        </mxCell>
        <mxCell id="2uZ70mHevNtbc2cB-5er-36" style="shape=tableRow;horizontal=0;startSize=0;swimlaneHead=0;swimlaneBody=0;fillColor=none;collapsible=0;dropTarget=0;points=[[0,0.5],[1,0.5]];portConstraint=eastwest;top=0;left=0;right=0;bottom=0;" vertex="1" parent="2uZ70mHevNtbc2cB-5er-32">
          <mxGeometry y="60" width="180" height="30" as="geometry" />
        </mxCell>
        <mxCell id="2uZ70mHevNtbc2cB-5er-37" value="FK2" style="shape=partialRectangle;connectable=0;fillColor=none;top=0;left=0;bottom=0;right=0;editable=1;overflow=hidden;whiteSpace=wrap;html=1;" vertex="1" parent="2uZ70mHevNtbc2cB-5er-36">
          <mxGeometry width="30" height="30" as="geometry">
            <mxRectangle width="30" height="30" as="alternateBounds" />
          </mxGeometry>
        </mxCell>
        <mxCell id="2uZ70mHevNtbc2cB-5er-38" value="account_id" style="shape=partialRectangle;connectable=0;fillColor=none;top=0;left=0;bottom=0;right=0;align=left;spacingLeft=6;overflow=hidden;whiteSpace=wrap;html=1;" vertex="1" parent="2uZ70mHevNtbc2cB-5er-36">
          <mxGeometry x="30" width="150" height="30" as="geometry">
            <mxRectangle width="150" height="30" as="alternateBounds" />
          </mxGeometry>
        </mxCell>
        <mxCell id="2uZ70mHevNtbc2cB-5er-39" value="" style="shape=tableRow;horizontal=0;startSize=0;swimlaneHead=0;swimlaneBody=0;fillColor=none;collapsible=0;dropTarget=0;points=[[0,0.5],[1,0.5]];portConstraint=eastwest;top=0;left=0;right=0;bottom=0;" vertex="1" parent="2uZ70mHevNtbc2cB-5er-32">
          <mxGeometry y="90" width="180" height="30" as="geometry" />
        </mxCell>
        <mxCell id="2uZ70mHevNtbc2cB-5er-40" value="" style="shape=partialRectangle;connectable=0;fillColor=none;top=0;left=0;bottom=0;right=0;editable=1;overflow=hidden;whiteSpace=wrap;html=1;" vertex="1" parent="2uZ70mHevNtbc2cB-5er-39">
          <mxGeometry width="30" height="30" as="geometry">
            <mxRectangle width="30" height="30" as="alternateBounds" />
          </mxGeometry>
        </mxCell>
        <mxCell id="2uZ70mHevNtbc2cB-5er-41" value="direction" style="shape=partialRectangle;connectable=0;fillColor=none;top=0;left=0;bottom=0;right=0;align=left;spacingLeft=6;overflow=hidden;whiteSpace=wrap;html=1;" vertex="1" parent="2uZ70mHevNtbc2cB-5er-39">
          <mxGeometry x="30" width="150" height="30" as="geometry">
            <mxRectangle width="150" height="30" as="alternateBounds" />
          </mxGeometry>
        </mxCell>
        <mxCell id="2uZ70mHevNtbc2cB-5er-42" value="" style="shape=tableRow;horizontal=0;startSize=0;swimlaneHead=0;swimlaneBody=0;fillColor=none;collapsible=0;dropTarget=0;points=[[0,0.5],[1,0.5]];portConstraint=eastwest;top=0;left=0;right=0;bottom=0;" vertex="1" parent="2uZ70mHevNtbc2cB-5er-32">
          <mxGeometry y="120" width="180" height="30" as="geometry" />
        </mxCell>
        <mxCell id="2uZ70mHevNtbc2cB-5er-43" value="" style="shape=partialRectangle;connectable=0;fillColor=none;top=0;left=0;bottom=0;right=0;editable=1;overflow=hidden;whiteSpace=wrap;html=1;" vertex="1" parent="2uZ70mHevNtbc2cB-5er-42">
          <mxGeometry width="30" height="30" as="geometry">
            <mxRectangle width="30" height="30" as="alternateBounds" />
          </mxGeometry>
        </mxCell>
        <mxCell id="2uZ70mHevNtbc2cB-5er-44" value="start_date" style="shape=partialRectangle;connectable=0;fillColor=none;top=0;left=0;bottom=0;right=0;align=left;spacingLeft=6;overflow=hidden;whiteSpace=wrap;html=1;" vertex="1" parent="2uZ70mHevNtbc2cB-5er-42">
          <mxGeometry x="30" width="150" height="30" as="geometry">
            <mxRectangle width="150" height="30" as="alternateBounds" />
          </mxGeometry>
        </mxCell>
        <mxCell id="2uZ70mHevNtbc2cB-5er-45" value="" style="shape=tableRow;horizontal=0;startSize=0;swimlaneHead=0;swimlaneBody=0;fillColor=none;collapsible=0;dropTarget=0;points=[[0,0.5],[1,0.5]];portConstraint=eastwest;top=0;left=0;right=0;bottom=0;" vertex="1" parent="2uZ70mHevNtbc2cB-5er-32">
          <mxGeometry y="150" width="180" height="30" as="geometry" />
        </mxCell>
        <mxCell id="2uZ70mHevNtbc2cB-5er-46" value="" style="shape=partialRectangle;connectable=0;fillColor=none;top=0;left=0;bottom=0;right=0;editable=1;overflow=hidden;whiteSpace=wrap;html=1;" vertex="1" parent="2uZ70mHevNtbc2cB-5er-45">
          <mxGeometry width="30" height="30" as="geometry">
            <mxRectangle width="30" height="30" as="alternateBounds" />
          </mxGeometry>
        </mxCell>
        <mxCell id="2uZ70mHevNtbc2cB-5er-47" value="end_date" style="shape=partialRectangle;connectable=0;fillColor=none;top=0;left=0;bottom=0;right=0;align=left;spacingLeft=6;overflow=hidden;whiteSpace=wrap;html=1;" vertex="1" parent="2uZ70mHevNtbc2cB-5er-45">
          <mxGeometry x="30" width="150" height="30" as="geometry">
            <mxRectangle width="150" height="30" as="alternateBounds" />
          </mxGeometry>
        </mxCell>
        <mxCell id="2uZ70mHevNtbc2cB-5er-88" style="shape=tableRow;horizontal=0;startSize=0;swimlaneHead=0;swimlaneBody=0;fillColor=none;collapsible=0;dropTarget=0;points=[[0,0.5],[1,0.5]];portConstraint=eastwest;top=0;left=0;right=0;bottom=0;" vertex="1" parent="2uZ70mHevNtbc2cB-5er-32">
          <mxGeometry y="180" width="180" height="30" as="geometry" />
        </mxCell>
        <mxCell id="2uZ70mHevNtbc2cB-5er-89" style="shape=partialRectangle;connectable=0;fillColor=none;top=0;left=0;bottom=0;right=0;editable=1;overflow=hidden;whiteSpace=wrap;html=1;" vertex="1" parent="2uZ70mHevNtbc2cB-5er-88">
          <mxGeometry width="30" height="30" as="geometry">
            <mxRectangle width="30" height="30" as="alternateBounds" />
          </mxGeometry>
        </mxCell>
        <mxCell id="2uZ70mHevNtbc2cB-5er-90" value="status&lt;span style=&quot;white-space: pre;&quot;&gt;&#x9;&lt;/span&gt;" style="shape=partialRectangle;connectable=0;fillColor=none;top=0;left=0;bottom=0;right=0;align=left;spacingLeft=6;overflow=hidden;whiteSpace=wrap;html=1;" vertex="1" parent="2uZ70mHevNtbc2cB-5er-88">
          <mxGeometry x="30" width="150" height="30" as="geometry">
            <mxRectangle width="150" height="30" as="alternateBounds" />
          </mxGeometry>
        </mxCell>
        <mxCell id="2uZ70mHevNtbc2cB-5er-85" style="shape=tableRow;horizontal=0;startSize=0;swimlaneHead=0;swimlaneBody=0;fillColor=none;collapsible=0;dropTarget=0;points=[[0,0.5],[1,0.5]];portConstraint=eastwest;top=0;left=0;right=0;bottom=0;" vertex="1" parent="2uZ70mHevNtbc2cB-5er-32">
          <mxGeometry y="210" width="180" height="30" as="geometry" />
        </mxCell>
        <mxCell id="2uZ70mHevNtbc2cB-5er-86" style="shape=partialRectangle;connectable=0;fillColor=none;top=0;left=0;bottom=0;right=0;editable=1;overflow=hidden;whiteSpace=wrap;html=1;" vertex="1" parent="2uZ70mHevNtbc2cB-5er-85">
          <mxGeometry width="30" height="30" as="geometry">
            <mxRectangle width="30" height="30" as="alternateBounds" />
          </mxGeometry>
        </mxCell>
        <mxCell id="2uZ70mHevNtbc2cB-5er-87" value="amount" style="shape=partialRectangle;connectable=0;fillColor=none;top=0;left=0;bottom=0;right=0;align=left;spacingLeft=6;overflow=hidden;whiteSpace=wrap;html=1;" vertex="1" parent="2uZ70mHevNtbc2cB-5er-85">
          <mxGeometry x="30" width="150" height="30" as="geometry">
            <mxRectangle width="150" height="30" as="alternateBounds" />
          </mxGeometry>
        </mxCell>
        <mxCell id="2uZ70mHevNtbc2cB-5er-68" value="transfers" style="shape=table;startSize=30;container=1;collapsible=1;childLayout=tableLayout;fixedRows=1;rowLines=0;fontStyle=1;align=center;resizeLast=1;html=1;whiteSpace=wrap;" vertex="1" parent="1">
          <mxGeometry x="517.5" y="560" width="180" height="180" as="geometry" />
        </mxCell>
        <mxCell id="2uZ70mHevNtbc2cB-5er-69" value="" style="shape=tableRow;horizontal=0;startSize=0;swimlaneHead=0;swimlaneBody=0;fillColor=none;collapsible=0;dropTarget=0;points=[[0,0.5],[1,0.5]];portConstraint=eastwest;top=0;left=0;right=0;bottom=0;html=1;" vertex="1" parent="2uZ70mHevNtbc2cB-5er-68">
          <mxGeometry y="30" width="180" height="30" as="geometry" />
        </mxCell>
        <mxCell id="2uZ70mHevNtbc2cB-5er-70" value="FK1" style="shape=partialRectangle;connectable=0;fillColor=none;top=0;left=0;bottom=0;right=0;fontStyle=1;overflow=hidden;html=1;whiteSpace=wrap;" vertex="1" parent="2uZ70mHevNtbc2cB-5er-69">
          <mxGeometry width="60" height="30" as="geometry">
            <mxRectangle width="60" height="30" as="alternateBounds" />
          </mxGeometry>
        </mxCell>
        <mxCell id="2uZ70mHevNtbc2cB-5er-71" value="from_account_id" style="shape=partialRectangle;connectable=0;fillColor=none;top=0;left=0;bottom=0;right=0;align=left;spacingLeft=6;fontStyle=5;overflow=hidden;html=1;whiteSpace=wrap;" vertex="1" parent="2uZ70mHevNtbc2cB-5er-69">
          <mxGeometry x="60" width="120" height="30" as="geometry">
            <mxRectangle width="120" height="30" as="alternateBounds" />
          </mxGeometry>
        </mxCell>
        <mxCell id="2uZ70mHevNtbc2cB-5er-91" style="shape=tableRow;horizontal=0;startSize=0;swimlaneHead=0;swimlaneBody=0;fillColor=none;collapsible=0;dropTarget=0;points=[[0,0.5],[1,0.5]];portConstraint=eastwest;top=0;left=0;right=0;bottom=0;html=1;" vertex="1" parent="2uZ70mHevNtbc2cB-5er-68">
          <mxGeometry y="60" width="180" height="30" as="geometry" />
        </mxCell>
        <mxCell id="2uZ70mHevNtbc2cB-5er-92" value="FK2" style="shape=partialRectangle;connectable=0;fillColor=none;top=0;left=0;bottom=0;right=0;fontStyle=1;overflow=hidden;html=1;whiteSpace=wrap;" vertex="1" parent="2uZ70mHevNtbc2cB-5er-91">
          <mxGeometry width="60" height="30" as="geometry">
            <mxRectangle width="60" height="30" as="alternateBounds" />
          </mxGeometry>
        </mxCell>
        <mxCell id="2uZ70mHevNtbc2cB-5er-93" value="to_account_id" style="shape=partialRectangle;connectable=0;fillColor=none;top=0;left=0;bottom=0;right=0;align=left;spacingLeft=6;fontStyle=5;overflow=hidden;html=1;whiteSpace=wrap;" vertex="1" parent="2uZ70mHevNtbc2cB-5er-91">
          <mxGeometry x="60" width="120" height="30" as="geometry">
            <mxRectangle width="120" height="30" as="alternateBounds" />
          </mxGeometry>
        </mxCell>
        <mxCell id="2uZ70mHevNtbc2cB-5er-75" value="" style="shape=tableRow;horizontal=0;startSize=0;swimlaneHead=0;swimlaneBody=0;fillColor=none;collapsible=0;dropTarget=0;points=[[0,0.5],[1,0.5]];portConstraint=eastwest;top=0;left=0;right=0;bottom=0;html=1;" vertex="1" parent="2uZ70mHevNtbc2cB-5er-68">
          <mxGeometry y="90" width="180" height="30" as="geometry" />
        </mxCell>
        <mxCell id="2uZ70mHevNtbc2cB-5er-76" value="" style="shape=partialRectangle;connectable=0;fillColor=none;top=0;left=0;bottom=0;right=0;editable=1;overflow=hidden;html=1;whiteSpace=wrap;" vertex="1" parent="2uZ70mHevNtbc2cB-5er-75">
          <mxGeometry width="60" height="30" as="geometry">
            <mxRectangle width="60" height="30" as="alternateBounds" />
          </mxGeometry>
        </mxCell>
        <mxCell id="2uZ70mHevNtbc2cB-5er-77" value="status" style="shape=partialRectangle;connectable=0;fillColor=none;top=0;left=0;bottom=0;right=0;align=left;spacingLeft=6;overflow=hidden;html=1;whiteSpace=wrap;" vertex="1" parent="2uZ70mHevNtbc2cB-5er-75">
          <mxGeometry x="60" width="120" height="30" as="geometry">
            <mxRectangle width="120" height="30" as="alternateBounds" />
          </mxGeometry>
        </mxCell>
        <mxCell id="2uZ70mHevNtbc2cB-5er-78" value="" style="shape=tableRow;horizontal=0;startSize=0;swimlaneHead=0;swimlaneBody=0;fillColor=none;collapsible=0;dropTarget=0;points=[[0,0.5],[1,0.5]];portConstraint=eastwest;top=0;left=0;right=0;bottom=0;html=1;" vertex="1" parent="2uZ70mHevNtbc2cB-5er-68">
          <mxGeometry y="120" width="180" height="30" as="geometry" />
        </mxCell>
        <mxCell id="2uZ70mHevNtbc2cB-5er-79" value="" style="shape=partialRectangle;connectable=0;fillColor=none;top=0;left=0;bottom=0;right=0;editable=1;overflow=hidden;html=1;whiteSpace=wrap;" vertex="1" parent="2uZ70mHevNtbc2cB-5er-78">
          <mxGeometry width="60" height="30" as="geometry">
            <mxRectangle width="60" height="30" as="alternateBounds" />
          </mxGeometry>
        </mxCell>
        <mxCell id="2uZ70mHevNtbc2cB-5er-80" value="amount" style="shape=partialRectangle;connectable=0;fillColor=none;top=0;left=0;bottom=0;right=0;align=left;spacingLeft=6;overflow=hidden;html=1;whiteSpace=wrap;" vertex="1" parent="2uZ70mHevNtbc2cB-5er-78">
          <mxGeometry x="60" width="120" height="30" as="geometry">
            <mxRectangle width="120" height="30" as="alternateBounds" />
          </mxGeometry>
        </mxCell>
        <mxCell id="2uZ70mHevNtbc2cB-5er-81" style="shape=tableRow;horizontal=0;startSize=0;swimlaneHead=0;swimlaneBody=0;fillColor=none;collapsible=0;dropTarget=0;points=[[0,0.5],[1,0.5]];portConstraint=eastwest;top=0;left=0;right=0;bottom=0;html=1;" vertex="1" parent="2uZ70mHevNtbc2cB-5er-68">
          <mxGeometry y="150" width="180" height="30" as="geometry" />
        </mxCell>
        <mxCell id="2uZ70mHevNtbc2cB-5er-82" style="shape=partialRectangle;connectable=0;fillColor=none;top=0;left=0;bottom=0;right=0;editable=1;overflow=hidden;html=1;whiteSpace=wrap;" vertex="1" parent="2uZ70mHevNtbc2cB-5er-81">
          <mxGeometry width="60" height="30" as="geometry">
            <mxRectangle width="60" height="30" as="alternateBounds" />
          </mxGeometry>
        </mxCell>
        <mxCell id="2uZ70mHevNtbc2cB-5er-83" value="date" style="shape=partialRectangle;connectable=0;fillColor=none;top=0;left=0;bottom=0;right=0;align=left;spacingLeft=6;overflow=hidden;html=1;whiteSpace=wrap;" vertex="1" parent="2uZ70mHevNtbc2cB-5er-81">
          <mxGeometry x="60" width="120" height="30" as="geometry">
            <mxRectangle width="120" height="30" as="alternateBounds" />
          </mxGeometry>
        </mxCell>
        <mxCell id="2uZ70mHevNtbc2cB-5er-84" value="" style="fontSize=12;html=1;endArrow=ERzeroToMany;endFill=1;startArrow=ERzeroToMany;rounded=0;entryX=0.994;entryY=-0.16;entryDx=0;entryDy=0;entryPerimeter=0;exitX=0.75;exitY=0;exitDx=0;exitDy=0;" edge="1" parent="1" source="2uZ70mHevNtbc2cB-5er-14" target="2uZ70mHevNtbc2cB-5er-72">
          <mxGeometry width="100" height="100" relative="1" as="geometry">
            <mxPoint x="650" y="760" as="sourcePoint" />
            <mxPoint x="750" y="660" as="targetPoint" />
            <Array as="points">
              <mxPoint x="650" y="615" />
            </Array>
          </mxGeometry>
        </mxCell>
        <mxCell id="2uZ70mHevNtbc2cB-5er-94" value="" style="fontSize=12;html=1;endArrow=ERzeroToMany;startArrow=ERmandOne;rounded=0;entryX=0;entryY=0.5;entryDx=0;entryDy=0;exitX=0;exitY=0.5;exitDx=0;exitDy=0;" edge="1" parent="1" source="2uZ70mHevNtbc2cB-5er-15" target="2uZ70mHevNtbc2cB-5er-91">
          <mxGeometry width="100" height="100" relative="1" as="geometry">
            <mxPoint x="430" y="700" as="sourcePoint" />
            <mxPoint x="480" y="665" as="targetPoint" />
            <Array as="points">
              <mxPoint x="450" y="845" />
              <mxPoint x="450" y="635" />
            </Array>
          </mxGeometry>
        </mxCell>
        <mxCell id="2uZ70mHevNtbc2cB-5er-95" value="" style="fontSize=12;html=1;endArrow=ERzeroToMany;startArrow=ERmandOne;rounded=0;exitX=0.996;exitY=-0.021;exitDx=0;exitDy=0;exitPerimeter=0;" edge="1" parent="1" source="2uZ70mHevNtbc2cB-5er-15" target="2uZ70mHevNtbc2cB-5er-69">
          <mxGeometry width="100" height="100" relative="1" as="geometry">
            <mxPoint x="799" y="820" as="sourcePoint" />
            <mxPoint x="799" y="610" as="targetPoint" />
            <Array as="points">
              <mxPoint x="730" y="830" />
              <mxPoint x="730" y="605" />
            </Array>
          </mxGeometry>
        </mxCell>
        <mxCell id="2uZ70mHevNtbc2cB-5er-96" value="corporate_accounts" style="shape=table;startSize=30;container=1;collapsible=1;childLayout=tableLayout;fixedRows=1;rowLines=0;fontStyle=1;align=center;resizeLast=1;html=1;" vertex="1" parent="1">
          <mxGeometry x="517.5" y="1070" width="180" height="120" as="geometry" />
        </mxCell>
        <mxCell id="2uZ70mHevNtbc2cB-5er-100" style="shape=tableRow;horizontal=0;startSize=0;swimlaneHead=0;swimlaneBody=0;fillColor=none;collapsible=0;dropTarget=0;points=[[0,0.5],[1,0.5]];portConstraint=eastwest;top=0;left=0;right=0;bottom=0;" vertex="1" parent="2uZ70mHevNtbc2cB-5er-96">
          <mxGeometry y="30" width="180" height="30" as="geometry" />
        </mxCell>
        <mxCell id="2uZ70mHevNtbc2cB-5er-101" value="PK, FK" style="shape=partialRectangle;connectable=0;fillColor=none;top=0;left=0;bottom=0;right=0;editable=1;overflow=hidden;whiteSpace=wrap;html=1;" vertex="1" parent="2uZ70mHevNtbc2cB-5er-100">
          <mxGeometry width="42.5" height="30" as="geometry">
            <mxRectangle width="42.5" height="30" as="alternateBounds" />
          </mxGeometry>
        </mxCell>
        <mxCell id="2uZ70mHevNtbc2cB-5er-102" value="account_id" style="shape=partialRectangle;connectable=0;fillColor=none;top=0;left=0;bottom=0;right=0;align=left;spacingLeft=6;overflow=hidden;whiteSpace=wrap;html=1;" vertex="1" parent="2uZ70mHevNtbc2cB-5er-100">
          <mxGeometry x="42.5" width="137.5" height="30" as="geometry">
            <mxRectangle width="137.5" height="30" as="alternateBounds" />
          </mxGeometry>
        </mxCell>
        <mxCell id="2uZ70mHevNtbc2cB-5er-103" value="" style="shape=tableRow;horizontal=0;startSize=0;swimlaneHead=0;swimlaneBody=0;fillColor=none;collapsible=0;dropTarget=0;points=[[0,0.5],[1,0.5]];portConstraint=eastwest;top=0;left=0;right=0;bottom=0;" vertex="1" parent="2uZ70mHevNtbc2cB-5er-96">
          <mxGeometry y="60" width="180" height="30" as="geometry" />
        </mxCell>
        <mxCell id="2uZ70mHevNtbc2cB-5er-104" value="" style="shape=partialRectangle;connectable=0;fillColor=none;top=0;left=0;bottom=0;right=0;editable=1;overflow=hidden;whiteSpace=wrap;html=1;" vertex="1" parent="2uZ70mHevNtbc2cB-5er-103">
          <mxGeometry width="42.5" height="30" as="geometry">
            <mxRectangle width="42.5" height="30" as="alternateBounds" />
          </mxGeometry>
        </mxCell>
        <mxCell id="2uZ70mHevNtbc2cB-5er-105" value="name" style="shape=partialRectangle;connectable=0;fillColor=none;top=0;left=0;bottom=0;right=0;align=left;spacingLeft=6;overflow=hidden;whiteSpace=wrap;html=1;" vertex="1" parent="2uZ70mHevNtbc2cB-5er-103">
          <mxGeometry x="42.5" width="137.5" height="30" as="geometry">
            <mxRectangle width="137.5" height="30" as="alternateBounds" />
          </mxGeometry>
        </mxCell>
        <mxCell id="2uZ70mHevNtbc2cB-5er-106" value="" style="shape=tableRow;horizontal=0;startSize=0;swimlaneHead=0;swimlaneBody=0;fillColor=none;collapsible=0;dropTarget=0;points=[[0,0.5],[1,0.5]];portConstraint=eastwest;top=0;left=0;right=0;bottom=0;" vertex="1" parent="2uZ70mHevNtbc2cB-5er-96">
          <mxGeometry y="90" width="180" height="30" as="geometry" />
        </mxCell>
        <mxCell id="2uZ70mHevNtbc2cB-5er-107" value="UQ" style="shape=partialRectangle;connectable=0;fillColor=none;top=0;left=0;bottom=0;right=0;editable=1;overflow=hidden;whiteSpace=wrap;html=1;" vertex="1" parent="2uZ70mHevNtbc2cB-5er-106">
          <mxGeometry width="42.5" height="30" as="geometry">
            <mxRectangle width="42.5" height="30" as="alternateBounds" />
          </mxGeometry>
        </mxCell>
        <mxCell id="2uZ70mHevNtbc2cB-5er-108" value="tax_id" style="shape=partialRectangle;connectable=0;fillColor=none;top=0;left=0;bottom=0;right=0;align=left;spacingLeft=6;overflow=hidden;whiteSpace=wrap;html=1;" vertex="1" parent="2uZ70mHevNtbc2cB-5er-106">
          <mxGeometry x="42.5" width="137.5" height="30" as="geometry">
            <mxRectangle width="137.5" height="30" as="alternateBounds" />
          </mxGeometry>
        </mxCell>
        <mxCell id="2uZ70mHevNtbc2cB-5er-112" value="" style="fontSize=12;html=1;endArrow=ERzeroToOne;startArrow=ERmandOne;rounded=0;entryX=0.468;entryY=0.003;entryDx=0;entryDy=0;exitX=0.464;exitY=1.053;exitDx=0;exitDy=0;exitPerimeter=0;entryPerimeter=0;" edge="1" parent="1" source="2uZ70mHevNtbc2cB-5er-24" target="2uZ70mHevNtbc2cB-5er-96">
          <mxGeometry width="100" height="100" relative="1" as="geometry">
            <mxPoint x="430" y="1130" as="sourcePoint" />
            <mxPoint x="530" y="1030" as="targetPoint" />
          </mxGeometry>
        </mxCell>
        <mxCell id="2uZ70mHevNtbc2cB-5er-116" value="" style="fontSize=12;html=1;endArrow=ERzeroToMany;startArrow=ERmandOne;rounded=0;exitX=0.997;exitY=0.787;exitDx=0;exitDy=0;entryX=0;entryY=0.5;entryDx=0;entryDy=0;exitPerimeter=0;" edge="1" parent="1" source="2uZ70mHevNtbc2cB-5er-15" target="2uZ70mHevNtbc2cB-5er-36">
          <mxGeometry width="100" height="100" relative="1" as="geometry">
            <mxPoint x="708" y="855" as="sourcePoint" />
            <mxPoint x="708" y="615" as="targetPoint" />
            <Array as="points">
              <mxPoint x="850" y="855" />
              <mxPoint x="850" y="980" />
            </Array>
          </mxGeometry>
        </mxCell>
        <mxCell id="2uZ70mHevNtbc2cB-5er-117" value="bank_account_associations" style="shape=table;startSize=30;container=1;collapsible=1;childLayout=tableLayout;fixedRows=1;rowLines=0;fontStyle=1;align=center;resizeLast=1;html=1;" vertex="1" parent="1">
          <mxGeometry x="870" y="650" width="180" height="90" as="geometry" />
        </mxCell>
        <mxCell id="2uZ70mHevNtbc2cB-5er-121" style="shape=tableRow;horizontal=0;startSize=0;swimlaneHead=0;swimlaneBody=0;fillColor=none;collapsible=0;dropTarget=0;points=[[0,0.5],[1,0.5]];portConstraint=eastwest;top=0;left=0;right=0;bottom=0;" vertex="1" parent="2uZ70mHevNtbc2cB-5er-117">
          <mxGeometry y="30" width="180" height="30" as="geometry" />
        </mxCell>
        <mxCell id="2uZ70mHevNtbc2cB-5er-122" value="PK, FK1" style="shape=partialRectangle;connectable=0;fillColor=none;top=0;left=0;bottom=0;right=0;editable=1;overflow=hidden;whiteSpace=wrap;html=1;" vertex="1" parent="2uZ70mHevNtbc2cB-5er-121">
          <mxGeometry width="60" height="30" as="geometry">
            <mxRectangle width="60" height="30" as="alternateBounds" />
          </mxGeometry>
        </mxCell>
        <mxCell id="2uZ70mHevNtbc2cB-5er-123" value="bank_account_id" style="shape=partialRectangle;connectable=0;fillColor=none;top=0;left=0;bottom=0;right=0;align=left;spacingLeft=6;overflow=hidden;whiteSpace=wrap;html=1;" vertex="1" parent="2uZ70mHevNtbc2cB-5er-121">
          <mxGeometry x="60" width="120" height="30" as="geometry">
            <mxRectangle width="120" height="30" as="alternateBounds" />
          </mxGeometry>
        </mxCell>
        <mxCell id="2uZ70mHevNtbc2cB-5er-124" value="" style="shape=tableRow;horizontal=0;startSize=0;swimlaneHead=0;swimlaneBody=0;fillColor=none;collapsible=0;dropTarget=0;points=[[0,0.5],[1,0.5]];portConstraint=eastwest;top=0;left=0;right=0;bottom=0;" vertex="1" parent="2uZ70mHevNtbc2cB-5er-117">
          <mxGeometry y="60" width="180" height="30" as="geometry" />
        </mxCell>
        <mxCell id="2uZ70mHevNtbc2cB-5er-125" value="PK, FK2" style="shape=partialRectangle;connectable=0;fillColor=none;top=0;left=0;bottom=0;right=0;editable=1;overflow=hidden;whiteSpace=wrap;html=1;" vertex="1" parent="2uZ70mHevNtbc2cB-5er-124">
          <mxGeometry width="60" height="30" as="geometry">
            <mxRectangle width="60" height="30" as="alternateBounds" />
          </mxGeometry>
        </mxCell>
        <mxCell id="2uZ70mHevNtbc2cB-5er-126" value="account_id" style="shape=partialRectangle;connectable=0;fillColor=none;top=0;left=0;bottom=0;right=0;align=left;spacingLeft=6;overflow=hidden;whiteSpace=wrap;html=1;" vertex="1" parent="2uZ70mHevNtbc2cB-5er-124">
          <mxGeometry x="60" width="120" height="30" as="geometry">
            <mxRectangle width="120" height="30" as="alternateBounds" />
          </mxGeometry>
        </mxCell>
        <mxCell id="2uZ70mHevNtbc2cB-5er-133" value="" style="fontSize=12;html=1;endArrow=ERzeroToMany;startArrow=ERmandOne;rounded=0;entryX=0;entryY=0.5;entryDx=0;entryDy=0;exitX=0.996;exitY=0.39;exitDx=0;exitDy=0;exitPerimeter=0;" edge="1" parent="1" source="2uZ70mHevNtbc2cB-5er-15" target="2uZ70mHevNtbc2cB-5er-121">
          <mxGeometry width="100" height="100" relative="1" as="geometry">
            <mxPoint x="800" y="820" as="sourcePoint" />
            <mxPoint x="708" y="615" as="targetPoint" />
            <Array as="points">
              <mxPoint x="790" y="842" />
              <mxPoint x="790" y="695" />
            </Array>
          </mxGeometry>
        </mxCell>
        <mxCell id="2uZ70mHevNtbc2cB-5er-141" value="Table" style="shape=table;startSize=30;container=1;collapsible=1;childLayout=tableLayout;fixedRows=1;rowLines=0;fontStyle=1;align=center;resizeLast=1;html=1;" vertex="1" parent="1">
          <mxGeometry x="1200" y="650" width="180" height="90" as="geometry" />
        </mxCell>
        <mxCell id="2uZ70mHevNtbc2cB-5er-142" value="" style="shape=tableRow;horizontal=0;startSize=0;swimlaneHead=0;swimlaneBody=0;fillColor=none;collapsible=0;dropTarget=0;points=[[0,0.5],[1,0.5]];portConstraint=eastwest;top=0;left=0;right=0;bottom=1;" vertex="1" parent="2uZ70mHevNtbc2cB-5er-141">
          <mxGeometry y="30" width="180" height="30" as="geometry" />
        </mxCell>
        <mxCell id="2uZ70mHevNtbc2cB-5er-143" value="PK" style="shape=partialRectangle;connectable=0;fillColor=none;top=0;left=0;bottom=0;right=0;fontStyle=1;overflow=hidden;whiteSpace=wrap;html=1;" vertex="1" parent="2uZ70mHevNtbc2cB-5er-142">
          <mxGeometry width="30" height="30" as="geometry">
            <mxRectangle width="30" height="30" as="alternateBounds" />
          </mxGeometry>
        </mxCell>
        <mxCell id="2uZ70mHevNtbc2cB-5er-144" value="id" style="shape=partialRectangle;connectable=0;fillColor=none;top=0;left=0;bottom=0;right=0;align=left;spacingLeft=6;fontStyle=5;overflow=hidden;whiteSpace=wrap;html=1;" vertex="1" parent="2uZ70mHevNtbc2cB-5er-142">
          <mxGeometry x="30" width="150" height="30" as="geometry">
            <mxRectangle width="150" height="30" as="alternateBounds" />
          </mxGeometry>
        </mxCell>
        <mxCell id="2uZ70mHevNtbc2cB-5er-145" value="" style="shape=tableRow;horizontal=0;startSize=0;swimlaneHead=0;swimlaneBody=0;fillColor=none;collapsible=0;dropTarget=0;points=[[0,0.5],[1,0.5]];portConstraint=eastwest;top=0;left=0;right=0;bottom=0;" vertex="1" parent="2uZ70mHevNtbc2cB-5er-141">
          <mxGeometry y="60" width="180" height="30" as="geometry" />
        </mxCell>
        <mxCell id="2uZ70mHevNtbc2cB-5er-146" value="UQ" style="shape=partialRectangle;connectable=0;fillColor=none;top=0;left=0;bottom=0;right=0;editable=1;overflow=hidden;whiteSpace=wrap;html=1;" vertex="1" parent="2uZ70mHevNtbc2cB-5er-145">
          <mxGeometry width="30" height="30" as="geometry">
            <mxRectangle width="30" height="30" as="alternateBounds" />
          </mxGeometry>
        </mxCell>
        <mxCell id="2uZ70mHevNtbc2cB-5er-147" value="number" style="shape=partialRectangle;connectable=0;fillColor=none;top=0;left=0;bottom=0;right=0;align=left;spacingLeft=6;overflow=hidden;whiteSpace=wrap;html=1;" vertex="1" parent="2uZ70mHevNtbc2cB-5er-145">
          <mxGeometry x="30" width="150" height="30" as="geometry">
            <mxRectangle width="150" height="30" as="alternateBounds" />
          </mxGeometry>
        </mxCell>
        <mxCell id="2uZ70mHevNtbc2cB-5er-154" value="" style="fontSize=12;html=1;endArrow=ERzeroToMany;startArrow=ERmandOne;rounded=0;entryX=1;entryY=0.5;entryDx=0;entryDy=0;exitX=0;exitY=0.5;exitDx=0;exitDy=0;" edge="1" parent="1" source="2uZ70mHevNtbc2cB-5er-142" target="2uZ70mHevNtbc2cB-5er-121">
          <mxGeometry width="100" height="100" relative="1" as="geometry">
            <mxPoint x="1010" y="837" as="sourcePoint" />
            <mxPoint x="1183" y="690" as="targetPoint" />
            <Array as="points">
              <mxPoint x="1120" y="695" />
            </Array>
          </mxGeometry>
        </mxCell>
        <mxCell id="2uZ70mHevNtbc2cB-5er-155" value="" style="fontSize=12;html=1;endArrow=ERzeroToMany;startArrow=ERmandOne;rounded=0;entryX=1;entryY=0.5;entryDx=0;entryDy=0;" edge="1" parent="1" target="2uZ70mHevNtbc2cB-5er-113">
          <mxGeometry width="100" height="100" relative="1" as="geometry">
            <mxPoint x="1200" y="710" as="sourcePoint" />
            <mxPoint x="1050" y="770" as="targetPoint" />
            <Array as="points">
              <mxPoint x="1120" y="710" />
              <mxPoint x="1120" y="945" />
            </Array>
          </mxGeometry>
        </mxCell>
        <mxCell id="2uZ70mHevNtbc2cB-5er-156" value="&lt;div&gt;Update: CASCADE&lt;/div&gt;&lt;div&gt;Delete: RESTRICT&lt;br&gt;&lt;/div&gt;" style="text;html=1;align=center;verticalAlign=middle;resizable=0;points=[];autosize=1;strokeColor=none;fillColor=none;" vertex="1" parent="1">
          <mxGeometry x="305" y="830" width="130" height="40" as="geometry" />
        </mxCell>
        <mxCell id="2uZ70mHevNtbc2cB-5er-157" value="&lt;div&gt;Update: CASCADE&lt;/div&gt;&lt;div&gt;Delete: RESTRICT&lt;br&gt;&lt;/div&gt;" style="text;html=1;align=center;verticalAlign=middle;resizable=0;points=[];autosize=1;strokeColor=none;fillColor=none;" vertex="1" parent="1">
          <mxGeometry x="320" y="690" width="130" height="40" as="geometry" />
        </mxCell>
        <mxCell id="2uZ70mHevNtbc2cB-5er-158" value="&lt;div&gt;Update: CASCADE&lt;/div&gt;&lt;div&gt;Delete: RESTRICT&lt;br&gt;&lt;/div&gt;" style="text;html=1;align=center;verticalAlign=middle;resizable=0;points=[];autosize=1;strokeColor=none;fillColor=none;" vertex="1" parent="1">
          <mxGeometry x="730" y="620" width="130" height="40" as="geometry" />
        </mxCell>
        <mxCell id="2uZ70mHevNtbc2cB-5er-159" value="&lt;div&gt;Update: CASCADE&lt;/div&gt;&lt;div&gt;Delete: CASCADE&lt;br&gt;&lt;/div&gt;" style="text;html=1;align=center;verticalAlign=middle;resizable=0;points=[];autosize=1;strokeColor=none;fillColor=none;" vertex="1" parent="1">
          <mxGeometry x="790" y="750" width="130" height="40" as="geometry" />
        </mxCell>
        <mxCell id="2uZ70mHevNtbc2cB-5er-160" value="&lt;div&gt;Update: CASCADE&lt;/div&gt;&lt;div&gt;Delete: RESTRICT&lt;br&gt;&lt;/div&gt;" style="text;html=1;align=center;verticalAlign=middle;resizable=0;points=[];autosize=1;strokeColor=none;fillColor=none;" vertex="1" parent="1">
          <mxGeometry x="715" y="900" width="130" height="40" as="geometry" />
        </mxCell>
        <mxCell id="2uZ70mHevNtbc2cB-5er-161" value="&lt;div&gt;Update: CASCADE&lt;/div&gt;&lt;div&gt;Delete: RESTRICT&lt;br&gt;&lt;/div&gt;" style="text;html=1;align=center;verticalAlign=middle;resizable=0;points=[];autosize=1;strokeColor=none;fillColor=none;" vertex="1" parent="1">
          <mxGeometry x="615" y="1000" width="130" height="40" as="geometry" />
        </mxCell>
        <mxCell id="2uZ70mHevNtbc2cB-5er-162" value="&lt;div&gt;Update: CASCADE&lt;/div&gt;&lt;div&gt;Delete: RESTRICT&lt;br&gt;&lt;/div&gt;" style="text;html=1;align=center;verticalAlign=middle;resizable=0;points=[];autosize=1;strokeColor=none;fillColor=none;" vertex="1" parent="1">
          <mxGeometry x="1130" y="820" width="130" height="40" as="geometry" />
        </mxCell>
        <mxCell id="2uZ70mHevNtbc2cB-5er-163" value="&lt;div&gt;Update: CASCADE&lt;/div&gt;&lt;div&gt;Delete: CASCADE&lt;br&gt;&lt;/div&gt;" style="text;html=1;align=center;verticalAlign=middle;resizable=0;points=[];autosize=1;strokeColor=none;fillColor=none;" vertex="1" parent="1">
          <mxGeometry x="1060" y="640" width="130" height="40" as="geometry" />
        </mxCell>
      </root>
    </mxGraphModel>
  </diagram>
</mxfile>
